<svg width="64" height="38" viewBox="0 0 64 38" fill="none" xmlns="http://www.w3.org/2000/svg">
<path d="M61.9886 17.6276L54.7706 15.2216L51.397 5.94438C50.9759 4.78625 49.865 4.00813 48.6326 4.00813H39.9516V1.9395C39.9516 0.87 39.0816 0 38.0121 0H1.9395C0.87 0 0 0.870125 0 1.93962V28.9941C0 30.0636 0.87 30.9336 1.9395 30.9336H8.11375C8.05075 31.2799 8.01612 31.636 8.01612 32.0001C8.01612 35.2796 10.6842 37.9477 13.9637 37.9477C17.2432 37.9477 19.9114 35.2796 19.9114 32.0001C19.9114 31.6359 19.8767 31.2799 19.8137 30.9336H48.1946C48.1316 31.2799 48.097 31.636 48.097 32.0001C48.097 35.2796 50.7651 37.9477 54.0446 37.9477C57.3241 37.9477 59.9922 35.2796 59.9922 32.0001C59.9922 31.5369 59.9372 31.0864 59.8366 30.6534L61.8205 29.6615C63.1647 28.9891 64 27.6375 64 26.1341V20.4182C64 19.1502 63.1917 18.0287 61.9886 17.6276ZM1.875 1.93962C1.875 1.904 1.90387 1.875 1.9395 1.875H38.0121C38.0477 1.875 38.0766 1.90387 38.0766 1.9395V22.0444H1.875V1.93962ZM13.9636 36.0727C11.718 36.0727 9.891 34.2457 9.891 32.0001C9.891 29.7545 11.718 27.9275 13.9636 27.9275C16.2092 27.9275 18.0362 29.7545 18.0362 32.0001C18.0364 34.2457 16.2094 36.0727 13.9636 36.0727ZM38.0766 29.0585H19.1297C18.1044 27.2649 16.1735 26.0525 13.9636 26.0525C11.7537 26.0525 9.823 27.2649 8.79762 29.0585H1.9395C1.90387 29.0585 1.875 29.0296 1.875 28.994V23.9194H38.0766V29.0585ZM50.8372 9.89125L52.706 15.0304H50.693L48.8242 9.89125H50.8372ZM39.9516 5.88313H48.6326C49.0795 5.88313 49.4823 6.16525 49.635 6.58512L50.1554 8.01612H39.9516V5.88313ZM39.9516 9.89125H46.8291L48.6979 15.0304H39.9516V9.89125ZM54.0444 36.0727C51.7988 36.0727 49.9717 34.2457 49.9717 32.0001C49.9717 29.7545 51.7988 27.9275 54.0444 27.9275C56.29 27.9275 58.117 29.7545 58.117 32.0001C58.117 34.2457 56.29 36.0727 54.0444 36.0727ZM62.125 22.0442H61.0585C60.5407 22.0442 60.121 22.464 60.121 22.9817C60.121 23.4995 60.5407 23.9192 61.0585 23.9192H62.125V26.134C62.125 26.9228 61.6869 27.6316 60.9816 27.9844L59.1258 28.9122C58.0808 27.1989 56.194 26.0525 54.0444 26.0525C51.8345 26.0525 49.9038 27.2649 48.8784 29.0585H39.9516V23.9194H57.0505C57.5682 23.9194 57.988 23.4996 57.988 22.9819C57.988 22.4641 57.5682 22.0444 57.0505 22.0444H39.9516V16.9053H53.8923L61.3957 19.4064C61.832 19.5517 62.125 19.9584 62.125 20.4181V22.0442Z" fill="#272343"/>
<path d="M31.4632 11.1457L24.4491 7.1377C23.9997 6.88082 23.427 7.03707 23.17 7.48657C22.9131 7.9362 23.0692 8.50882 23.5189 8.7657L27.4679 11.0223H8.95374C8.43599 11.0223 8.01624 11.4421 8.01624 11.9598C8.01624 12.4776 8.43599 12.8972 8.95374 12.8972H27.4679L23.5189 15.1538C23.0694 15.4107 22.9131 15.9833 23.17 16.433C23.343 16.7357 23.6594 16.9055 23.9849 16.9055C24.1426 16.9055 24.3025 16.8656 24.4491 16.7817L31.4632 12.7737C31.7552 12.6068 31.9356 12.2962 31.9356 11.9597C31.9356 11.6232 31.7554 11.3127 31.4632 11.1457Z" fill="#272343"/>
</svg>
