<svg width="44" height="46" viewBox="0 0 44 46" fill="none" xmlns="http://www.w3.org/2000/svg">
<path d="M42.7384 10.1497L21.8526 0.0669175C21.6674 -0.0223872 21.4518 -0.0223872 21.2667 0.0669175L0.380848 10.1497C0.147973 10.2621 0 10.498 0 10.7565V35.2433C0 35.5019 0.147973 35.7378 0.380848 35.8502L21.2666 45.933C21.3592 45.9776 21.4595 46 21.5596 46C21.6598 46 21.76 45.9776 21.8526 45.933L42.7384 35.8502C42.9713 35.7378 43.1193 35.5019 43.1193 35.2433V10.7566C43.1193 10.4979 42.9712 10.2622 42.7384 10.1497ZM21.5596 1.42203L40.8955 10.7565L35.2904 13.4624C35.255 13.4354 35.2175 13.4104 35.1763 13.3906L15.9718 4.11959L21.5596 1.42203ZM14.45 4.88146L33.7578 14.2024L29.8033 16.1115L10.5035 6.79433L14.45 4.88146ZM34.2095 15.4807V22.5376L30.5158 24.3208V17.2639L34.2095 15.4807ZM41.7716 34.8205L22.2335 44.2525V21.2622L26.8939 19.0124C27.229 18.8505 27.3696 18.4478 27.2077 18.1126C27.0459 17.7775 26.6432 17.6369 26.308 17.7987L21.5596 20.0911L19.6912 19.1891C19.356 19.0271 18.9533 19.1678 18.7915 19.5029C18.6296 19.838 18.7702 20.2409 19.1053 20.4027L20.8858 21.2622V44.2525L1.34766 34.8204V11.8301L16.2258 19.0126C16.3202 19.0583 16.42 19.0798 16.5182 19.0798C16.7687 19.0798 17.0093 18.9395 17.1255 18.6988C17.2873 18.3637 17.1468 17.9608 16.8117 17.799L2.22372 10.7565L8.91753 7.52503L29.1588 17.2967C29.1618 17.3008 29.1651 17.3045 29.1681 17.3086V25.3944C29.1681 25.6263 29.2874 25.8418 29.4838 25.9652C29.5928 26.0336 29.7173 26.0682 29.8421 26.0682C29.942 26.0682 30.0421 26.046 30.1349 26.0012L35.1763 23.5674C35.4092 23.455 35.5572 23.2193 35.5572 22.9606V14.8302L41.7716 11.8302V34.8205Z" fill="#272343"/>
</svg>
